<?xml version="1.0" encoding="utf-8"?>
<!-- Generator: Adobe Illustrator 27.2.0, SVG Export Plug-In . SVG Version: 6.00 Build 0)  -->
<svg version="1.1" xmlns="http://www.w3.org/2000/svg" xmlns:xlink="http://www.w3.org/1999/xlink" x="0px" y="0px"
	 viewBox="0 0 500 500" style="enable-background:new 0 0 500 500;" xml:space="preserve">
<g id="Background_Simple">
	<g>
		<path style="fill:#76B2FF;" d="M449,218.48c-5.32-28.59-19.6-56.13-35.26-79.91c-23.25-35.32-58.97-68.38-103.82-66.31
			c-25.86,1.19-49.25,13.46-66.7,32.27c-16.79,18.09-28.15,38.73-52.1,48.49c-24.22,9.88-50.3,15.4-75.51,22.08
			C50.8,192.29,16.25,274.33,48.2,341.77c31.95,67.44,106.98,100.18,159.59,86.24c47.27-12.53,78.64-51.2,121.51-70.71
			c21.26-9.68,44.81-11.14,65.34-22.63c23.87-13.36,43.79-35.44,51.95-61.92C452.15,254.69,452.33,236.38,449,218.48z"/>
		<path style="opacity:0.7;fill:#FFFFFF;" d="M449,218.48c-5.32-28.59-19.6-56.13-35.26-79.91
			c-23.25-35.32-58.97-68.38-103.82-66.31c-25.86,1.19-49.25,13.46-66.7,32.27c-16.79,18.09-28.15,38.73-52.1,48.49
			c-24.22,9.88-50.3,15.4-75.51,22.08C50.8,192.29,16.25,274.33,48.2,341.77c31.95,67.44,106.98,100.18,159.59,86.24
			c47.27-12.53,78.64-51.2,121.51-70.71c21.26-9.68,44.81-11.14,65.34-22.63c23.87-13.36,43.79-35.44,51.95-61.92
			C452.15,254.69,452.33,236.38,449,218.48z"/>
	</g>
</g>
<g id="Plants">
	<g>
		<g>
			<g>
				<path style="fill:#76B2FF;" d="M108.78,274.96c0,0,0-4.05-5.68-9.73c-5.68-5.68-9.32-8.92-9.32-8.92s-2.84,9.32,2.43,15
					c5.27,5.68,12.57,10.95,12.57,10.95V274.96z"/>
				<path style="fill:#76B2FF;" d="M100.54,300.27c0,0,0-4.05-5.68-9.73c-5.68-5.68-9.32-8.92-9.32-8.92s-2.84,9.32,2.43,15
					c5.27,5.68,12.57,10.95,12.57,10.95V300.27z"/>
				<path style="fill:#76B2FF;" d="M108.42,281.86c0,0,0.43-4.03,6.67-9.08c6.24-5.04,10.21-7.88,10.21-7.88s1.84,9.57-4,14.66
					c-5.84,5.09-13.65,9.56-13.65,9.56L108.42,281.86z"/>
				<path style="fill:#76B2FF;" d="M98.47,311.76c0,0,0.85-3.96,7.59-8.32c6.74-4.36,10.99-6.77,10.99-6.77s0.82,9.71-5.52,14.16
					c-6.34,4.45-14.58,8.07-14.58,8.07L98.47,311.76z"/>
				<path style="fill:#76B2FF;" d="M100.34,344.36c0,0,0-4.05,5.68-9.73c5.68-5.68,9.32-8.92,9.32-8.92s2.84,9.32-2.43,15
					c-5.27,5.68-12.57,10.95-12.57,10.95V344.36z"/>
				<path style="fill:#76B2FF;" d="M100.25,352.32c0,0,0.58-4.01-4.24-10.44c-4.81-6.42-7.96-10.15-7.96-10.15
					s-4.13,8.83,0.28,15.19c4.41,6.37,10.88,12.62,10.88,12.62L100.25,352.32z"/>
				<path style="fill:#76B2FF;" d="M94.65,375.9c0,0,0-4.05,5.68-9.73c5.68-5.68,9.32-8.92,9.32-8.92s2.84,9.32-2.43,15
					c-5.27,5.68-12.57,10.95-12.57,10.95V375.9z"/>
				<path style="fill:#76B2FF;" d="M98.44,397.28c0,0-1.03-3.92,3.03-10.85c4.05-6.93,6.76-10.99,6.76-10.99s5.11,8.3,1.45,15.13
					c-3.66,6.83-9.39,13.77-9.39,13.77L98.44,397.28z"/>
			</g>
			
				<path style="fill:none;stroke:#1D1D38;stroke-width:1.092;stroke-linecap:round;stroke-linejoin:round;stroke-miterlimit:10;" d="
				M109.29,273.92c-0.33,4.33-0.82,8.82-1.55,12.59c-2.24,11.59-7.85,19.07-10.1,29.54c-2.24,10.47,4.2,23.96,2.47,37.41
				c-1.72,13.45-6.96,20.93-5.46,29.9c1.5,8.97,9.58,33.78,9.58,33.78"/>
			
				<line style="fill:none;stroke:#1D1D38;stroke-width:1.092;stroke-linecap:round;stroke-linejoin:round;stroke-miterlimit:10;" x1="108.36" y1="284.55" x2="114.48" y2="279.86"/>
			
				<line style="fill:none;stroke:#1D1D38;stroke-width:1.092;stroke-linecap:round;stroke-linejoin:round;stroke-miterlimit:10;" x1="108.65" y1="279.15" x2="106.09" y2="274.6"/>
			
				<path style="fill:none;stroke:#1D1D38;stroke-width:1.092;stroke-linecap:round;stroke-linejoin:round;stroke-miterlimit:10;" d="
				M97.98,315.56c0,0,5.12-3.84,10.38-7.68"/>
			
				<path style="fill:none;stroke:#1D1D38;stroke-width:1.092;stroke-linecap:round;stroke-linejoin:round;stroke-miterlimit:10;" d="
				M100.54,307.57c0,0-4.27-8.37-9.1-13.91"/>
			
				<path style="fill:none;stroke:#1D1D38;stroke-width:1.092;stroke-linecap:round;stroke-linejoin:round;stroke-miterlimit:10;" d="
				M100.54,350.13c0,0,3.98-7.82,10.95-14.65"/>
			
				<path style="fill:none;stroke:#1D1D38;stroke-width:1.092;stroke-linecap:round;stroke-linejoin:round;stroke-miterlimit:10;" d="
				M99.54,355.82c0,0-2.56-6.12-5.55-10.53c-2.99-4.41-3.41-4.98-3.41-4.98"/>
			
				<path style="fill:none;stroke:#1D1D38;stroke-width:1.092;stroke-linecap:round;stroke-linejoin:round;stroke-miterlimit:10;" d="
				M94.65,383.35c0,0,2.05-5.2,4.61-9.33c2.56-4.13,5.97-7.82,5.97-7.82"/>
			
				<path style="fill:none;stroke:#1D1D38;stroke-width:1.092;stroke-linecap:round;stroke-linejoin:round;stroke-miterlimit:10;" d="
				M100.29,404.34c0,0-0.6-4.85,1.53-8.98c2.13-4.12,4.55-9.53,5.55-11.66"/>
		</g>
		<g>
			<g>
				<path style="fill:#76B2FF;" d="M62.46,329.12c0,0-0.44-2.54,2.5-6.72s4.88-6.61,4.88-6.61s2.79,5.54,0.1,9.67
					c-2.69,4.13-6.69,8.23-6.69,8.23L62.46,329.12z"/>
				<path style="fill:#76B2FF;" d="M70.37,344.1c0,0-0.44-2.54,2.5-6.72c2.94-4.18,4.88-6.61,4.88-6.61s2.79,5.54,0.1,9.67
					c-2.69,4.13-6.69,8.23-6.69,8.23L70.37,344.1z"/>
				<path style="fill:#76B2FF;" d="M63.43,333.41c0,0-0.71-2.48-5.17-4.97C53.8,325.95,51,324.6,51,324.6s-0.11,6.2,4.1,8.76
					c4.21,2.56,9.6,4.51,9.6,4.51L63.43,333.41z"/>
				<path style="fill:#76B2FF;" d="M72.92,351.08c0,0-0.96-2.39-5.66-4.4c-4.7-2-7.62-3.05-7.62-3.05s0.54,6.18,5,8.28
					c4.46,2.1,10.02,3.48,10.02,3.48L72.92,351.08z"/>
				<path style="fill:#76B2FF;" d="M75.29,371.72c0,0-0.44-2.54-4.62-5.49c-4.18-2.94-6.82-4.58-6.82-4.58s-0.77,6.16,3.15,9.14
					c3.92,2.99,9.07,5.5,9.07,5.5L75.29,371.72z"/>
				<path style="fill:#76B2FF;" d="M76.21,376.7c0,0-0.8-2.45,1.52-7.01c2.32-4.55,3.89-7.23,3.89-7.23s3.55,5.09,1.48,9.56
					c-2.07,4.47-5.46,9.1-5.46,9.1L76.21,376.7z"/>
				<path style="fill:#76B2FF;" d="M83.33,397.21c0,0,0.29-2.56,4.29-5.74c4-3.18,6.54-4.96,6.54-4.96s1.12,6.1-2.63,9.31
					c-3.74,3.21-8.74,6.01-8.74,6.01L83.33,397.21z"/>
				<path style="fill:#76B2FF;" d="M82.28,390.88c0,0-0.44-2.54-4.62-5.49c-4.18-2.94-6.82-4.58-6.82-4.58s-0.77,6.16,3.15,9.14
					c3.92,2.99,9.07,5.5,9.07,5.5L82.28,390.88z"/>
				<path style="fill:#76B2FF;" d="M82.22,404.7c0,0,0.22-2.57-3.08-6.48c-3.29-3.9-5.43-6.16-5.43-6.16s-2.3,5.76,0.74,9.64
					c3.04,3.88,7.38,7.62,7.38,7.62L82.22,404.7z"/>
			</g>
			
				<path style="fill:none;stroke:#1D1D38;stroke-width:1.092;stroke-linecap:round;stroke-linejoin:round;stroke-miterlimit:10;" d="
				M62.02,328.52c0.68,2.68,1.47,5.44,2.34,7.72c2.67,7.03,6.99,11.11,9.54,17.43c2.54,6.32-0.03,15.48,2.51,23.73
				c2.54,8.25,6.64,12.37,6.67,18.16c0.04,5.79-2.08,21.45-2.08,21.45"/>
			
				<line style="fill:none;stroke:#1D1D38;stroke-width:1.092;stroke-linecap:round;stroke-linejoin:round;stroke-miterlimit:10;" x1="63.76" y1="335.09" x2="59.42" y2="332.81"/>
			
				<line style="fill:none;stroke:#1D1D38;stroke-width:1.092;stroke-linecap:round;stroke-linejoin:round;stroke-miterlimit:10;" x1="63" y1="331.73" x2="64.11" y2="328.6"/>
			
				<path style="fill:none;stroke:#1D1D38;stroke-width:1.092;stroke-linecap:round;stroke-linejoin:round;stroke-miterlimit:10;" d="
				M73.64,353.41c0,0-3.63-1.85-7.35-3.69"/>
			
				<path style="fill:none;stroke:#1D1D38;stroke-width:1.092;stroke-linecap:round;stroke-linejoin:round;stroke-miterlimit:10;" d="
				M71.17,348.67c0,0,1.77-5.71,4.2-9.71"/>
			
				<path style="fill:none;stroke:#1D1D38;stroke-width:1.092;stroke-linecap:round;stroke-linejoin:round;stroke-miterlimit:10;" d="
				M75.79,375.36c0,0-3.35-4.47-8.46-8"/>
			
				<path style="fill:none;stroke:#1D1D38;stroke-width:1.092;stroke-linecap:round;stroke-linejoin:round;stroke-miterlimit:10;" d="
				M77.03,378.82c0,0,0.94-4.11,2.34-7.2c1.39-3.09,1.6-3.49,1.6-3.49"/>
			
				<path style="fill:none;stroke:#1D1D38;stroke-width:1.092;stroke-linecap:round;stroke-linejoin:round;stroke-miterlimit:10;" d="
				M82.89,399.95c0,0,2.88-3.53,4.67-4.85c1.79-1.32,3.03-2.64,3.03-2.64"/>
			
				<path style="fill:none;stroke:#1D1D38;stroke-width:1.092;stroke-linecap:round;stroke-linejoin:round;stroke-miterlimit:10;" d="
				M83.09,395.56c0,0-1.85-3.04-3.9-5.35c-2.05-2.31-4.6-4.26-4.6-4.26"/>
			
				<path style="fill:none;stroke:#1D1D38;stroke-width:1.092;stroke-linecap:round;stroke-linejoin:round;stroke-miterlimit:10;" d="
				M81.83,409.33c0,0-0.15-3.11-1.94-5.46c-1.79-2.36-3.89-5.48-4.75-6.71"/>
		</g>
	</g>
</g>
<g id="Lamp">
	<g>
		
			<rect x="356.54" y="341.12" style="fill:none;stroke:#1D1D38;stroke-width:1.092;stroke-linecap:round;stroke-linejoin:round;stroke-miterlimit:10;" width="93.91" height="8.01"/>
		
			<rect x="360.9" y="349.23" style="fill:none;stroke:#1D1D38;stroke-width:1.092;stroke-linecap:round;stroke-linejoin:round;stroke-miterlimit:10;" width="85.2" height="68.23"/>
		<g>
			
				<rect x="363.86" y="353.68" style="fill:none;stroke:#1D1D38;stroke-width:1.092;stroke-linecap:round;stroke-linejoin:round;stroke-miterlimit:10;" width="79.17" height="20.75"/>
			
				<rect x="399.35" y="362.14" style="fill:none;stroke:#1D1D38;stroke-width:1.092;stroke-linecap:round;stroke-linejoin:round;stroke-miterlimit:10;" width="7.92" height="3.82"/>
		</g>
		<g>
			
				<rect x="363.86" y="379.89" style="fill:none;stroke:#1D1D38;stroke-width:1.092;stroke-linecap:round;stroke-linejoin:round;stroke-miterlimit:10;" width="79.17" height="20.75"/>
			
				<rect x="399.35" y="388.35" style="fill:none;stroke:#1D1D38;stroke-width:1.092;stroke-linecap:round;stroke-linejoin:round;stroke-miterlimit:10;" width="7.92" height="3.82"/>
		</g>
		<g>
			
				<rect x="367.14" y="285.67" style="fill:#1D1D38;stroke:#1D1D38;stroke-width:1.092;stroke-linecap:round;stroke-linejoin:round;stroke-miterlimit:10;" width="39.31" height="38.58"/>
			
				<polygon style="fill:none;stroke:#1D1D38;stroke-width:1.092;stroke-linecap:round;stroke-linejoin:round;stroke-miterlimit:10;" points="
				389.34,339.21 389.34,322.8 384.25,322.8 384.25,339.21 376.97,339.21 376.97,341 384.25,341 389.34,341 396.62,341 
				396.62,339.21 			"/>
			
				<line style="fill:none;stroke:#3E2A3B;stroke-width:1.092;stroke-linecap:round;stroke-linejoin:round;stroke-miterlimit:10;" x1="369.6" y1="287.07" x2="369.6" y2="322.01"/>
			
				<line style="fill:none;stroke:#3E2A3B;stroke-width:1.092;stroke-linecap:round;stroke-linejoin:round;stroke-miterlimit:10;" x1="376.15" y1="287.07" x2="376.15" y2="322.01"/>
			
				<line style="fill:none;stroke:#3E2A3B;stroke-width:1.092;stroke-linecap:round;stroke-linejoin:round;stroke-miterlimit:10;" x1="386.8" y1="287.07" x2="386.8" y2="322.01"/>
			
				<line style="fill:none;stroke:#3E2A3B;stroke-width:1.092;stroke-linecap:round;stroke-linejoin:round;stroke-miterlimit:10;" x1="399.35" y1="287.07" x2="399.35" y2="322.01"/>
		</g>
	</g>
</g>
<g id="Picture">
	<g>
		
			<rect x="360.45" y="177.95" style="fill:none;stroke:#1D1D38;stroke-width:1.092;stroke-linecap:round;stroke-linejoin:round;stroke-miterlimit:10;" width="64.12" height="86.1"/>
		
			<rect x="366.59" y="186.19" style="fill:none;stroke:#1D1D38;stroke-width:1.092;stroke-linecap:round;stroke-linejoin:round;stroke-miterlimit:10;" width="51.84" height="69.62"/>
	</g>
</g>
<g id="Door">
	<g>
		
			<rect x="222.64" y="155.47" style="fill:none;stroke:#1D1D38;stroke-width:1.092;stroke-linecap:round;stroke-linejoin:round;stroke-miterlimit:10;" width="125.3" height="261.99"/>
		<g>
			
				<rect x="234.03" y="167.85" style="fill:none;stroke:#1D1D38;stroke-width:1.092;stroke-linecap:round;stroke-linejoin:round;stroke-miterlimit:10;" width="45.56" height="68.35"/>
			
				<rect x="240.58" y="177.68" style="fill:none;stroke:#1D1D38;stroke-width:1.092;stroke-linecap:round;stroke-linejoin:round;stroke-miterlimit:10;" width="32.47" height="48.7"/>
			
				<line style="fill:none;stroke:#1D1D38;stroke-width:1.092;stroke-linecap:round;stroke-linejoin:round;stroke-miterlimit:10;" x1="240.58" y1="177.68" x2="234.03" y2="167.85"/>
			
				<line style="fill:none;stroke:#1D1D38;stroke-width:1.092;stroke-linecap:round;stroke-linejoin:round;stroke-miterlimit:10;" x1="273.04" y1="177.68" x2="279.59" y2="167.85"/>
			
				<line style="fill:none;stroke:#1D1D38;stroke-width:1.092;stroke-linecap:round;stroke-linejoin:round;stroke-miterlimit:10;" x1="273.04" y1="226.38" x2="279.59" y2="236.2"/>
			
				<line style="fill:none;stroke:#1D1D38;stroke-width:1.092;stroke-linecap:round;stroke-linejoin:round;stroke-miterlimit:10;" x1="240.58" y1="226.38" x2="234.03" y2="236.2"/>
		</g>
		<g>
			
				<rect x="288.79" y="167.85" style="fill:none;stroke:#1D1D38;stroke-width:1.092;stroke-linecap:round;stroke-linejoin:round;stroke-miterlimit:10;" width="45.56" height="68.35"/>
			
				<rect x="295.34" y="177.68" style="fill:none;stroke:#1D1D38;stroke-width:1.092;stroke-linecap:round;stroke-linejoin:round;stroke-miterlimit:10;" width="32.47" height="48.7"/>
			
				<line style="fill:none;stroke:#1D1D38;stroke-width:1.092;stroke-linecap:round;stroke-linejoin:round;stroke-miterlimit:10;" x1="295.34" y1="177.68" x2="288.79" y2="167.85"/>
			
				<line style="fill:none;stroke:#1D1D38;stroke-width:1.092;stroke-linecap:round;stroke-linejoin:round;stroke-miterlimit:10;" x1="327.8" y1="177.68" x2="334.35" y2="167.85"/>
			
				<line style="fill:none;stroke:#1D1D38;stroke-width:1.092;stroke-linecap:round;stroke-linejoin:round;stroke-miterlimit:10;" x1="327.8" y1="226.38" x2="334.35" y2="236.2"/>
			
				<line style="fill:none;stroke:#1D1D38;stroke-width:1.092;stroke-linecap:round;stroke-linejoin:round;stroke-miterlimit:10;" x1="295.34" y1="226.38" x2="288.79" y2="236.2"/>
		</g>
		<g>
			
				<rect x="234.03" y="253.82" style="fill:none;stroke:#1D1D38;stroke-width:1.092;stroke-linecap:round;stroke-linejoin:round;stroke-miterlimit:10;" width="45.56" height="68.35"/>
			
				<rect x="240.58" y="263.64" style="fill:none;stroke:#1D1D38;stroke-width:1.092;stroke-linecap:round;stroke-linejoin:round;stroke-miterlimit:10;" width="32.47" height="48.7"/>
			
				<line style="fill:none;stroke:#1D1D38;stroke-width:1.092;stroke-linecap:round;stroke-linejoin:round;stroke-miterlimit:10;" x1="240.58" y1="263.64" x2="234.03" y2="253.82"/>
			
				<line style="fill:none;stroke:#1D1D38;stroke-width:1.092;stroke-linecap:round;stroke-linejoin:round;stroke-miterlimit:10;" x1="273.04" y1="263.64" x2="279.59" y2="253.82"/>
			
				<line style="fill:none;stroke:#1D1D38;stroke-width:1.092;stroke-linecap:round;stroke-linejoin:round;stroke-miterlimit:10;" x1="273.04" y1="312.34" x2="279.59" y2="322.17"/>
			
				<line style="fill:none;stroke:#1D1D38;stroke-width:1.092;stroke-linecap:round;stroke-linejoin:round;stroke-miterlimit:10;" x1="240.58" y1="312.34" x2="234.03" y2="322.17"/>
		</g>
		<g>
			
				<rect x="288.79" y="253.82" style="fill:none;stroke:#1D1D38;stroke-width:1.092;stroke-linecap:round;stroke-linejoin:round;stroke-miterlimit:10;" width="45.56" height="68.35"/>
			
				<rect x="295.34" y="263.64" style="fill:none;stroke:#1D1D38;stroke-width:1.092;stroke-linecap:round;stroke-linejoin:round;stroke-miterlimit:10;" width="32.47" height="48.7"/>
			
				<line style="fill:none;stroke:#1D1D38;stroke-width:1.092;stroke-linecap:round;stroke-linejoin:round;stroke-miterlimit:10;" x1="295.34" y1="263.64" x2="288.79" y2="253.82"/>
			
				<line style="fill:none;stroke:#1D1D38;stroke-width:1.092;stroke-linecap:round;stroke-linejoin:round;stroke-miterlimit:10;" x1="327.8" y1="263.64" x2="334.35" y2="253.82"/>
			
				<line style="fill:none;stroke:#1D1D38;stroke-width:1.092;stroke-linecap:round;stroke-linejoin:round;stroke-miterlimit:10;" x1="327.8" y1="312.34" x2="334.35" y2="322.17"/>
			
				<line style="fill:none;stroke:#1D1D38;stroke-width:1.092;stroke-linecap:round;stroke-linejoin:round;stroke-miterlimit:10;" x1="295.34" y1="312.34" x2="288.79" y2="322.17"/>
		</g>
		<g>
			
				<rect x="234.03" y="341.1" style="fill:none;stroke:#1D1D38;stroke-width:1.092;stroke-linecap:round;stroke-linejoin:round;stroke-miterlimit:10;" width="45.56" height="68.35"/>
			
				<rect x="240.58" y="350.92" style="fill:none;stroke:#1D1D38;stroke-width:1.092;stroke-linecap:round;stroke-linejoin:round;stroke-miterlimit:10;" width="32.47" height="48.7"/>
			
				<line style="fill:none;stroke:#1D1D38;stroke-width:1.092;stroke-linecap:round;stroke-linejoin:round;stroke-miterlimit:10;" x1="240.58" y1="350.92" x2="234.03" y2="341.1"/>
			
				<line style="fill:none;stroke:#1D1D38;stroke-width:1.092;stroke-linecap:round;stroke-linejoin:round;stroke-miterlimit:10;" x1="273.04" y1="350.92" x2="279.59" y2="341.1"/>
			
				<line style="fill:none;stroke:#1D1D38;stroke-width:1.092;stroke-linecap:round;stroke-linejoin:round;stroke-miterlimit:10;" x1="273.04" y1="399.62" x2="279.59" y2="409.44"/>
			
				<line style="fill:none;stroke:#1D1D38;stroke-width:1.092;stroke-linecap:round;stroke-linejoin:round;stroke-miterlimit:10;" x1="240.58" y1="399.62" x2="234.03" y2="409.44"/>
		</g>
		<g>
			
				<rect x="288.79" y="341.1" style="fill:none;stroke:#1D1D38;stroke-width:1.092;stroke-linecap:round;stroke-linejoin:round;stroke-miterlimit:10;" width="45.56" height="68.35"/>
			
				<rect x="295.34" y="350.92" style="fill:none;stroke:#1D1D38;stroke-width:1.092;stroke-linecap:round;stroke-linejoin:round;stroke-miterlimit:10;" width="32.47" height="48.7"/>
			
				<line style="fill:none;stroke:#1D1D38;stroke-width:1.092;stroke-linecap:round;stroke-linejoin:round;stroke-miterlimit:10;" x1="295.34" y1="350.92" x2="288.79" y2="341.1"/>
			
				<line style="fill:none;stroke:#1D1D38;stroke-width:1.092;stroke-linecap:round;stroke-linejoin:round;stroke-miterlimit:10;" x1="327.8" y1="350.92" x2="334.35" y2="341.1"/>
			
				<line style="fill:none;stroke:#1D1D38;stroke-width:1.092;stroke-linecap:round;stroke-linejoin:round;stroke-miterlimit:10;" x1="327.8" y1="399.62" x2="334.35" y2="409.44"/>
			
				<line style="fill:none;stroke:#1D1D38;stroke-width:1.092;stroke-linecap:round;stroke-linejoin:round;stroke-miterlimit:10;" x1="295.34" y1="399.62" x2="288.79" y2="409.44"/>
		</g>
		<path style="fill:none;stroke:#1D1D38;stroke-width:1.092;stroke-linecap:round;stroke-linejoin:round;stroke-miterlimit:10;" d="
			M344.1,289.49c0-2.48-2.01-4.5-4.5-4.5c-2.48,0-4.49,2.01-4.49,4.5c0,2.48,2.01,4.49,4.49,4.49
			C342.09,293.99,344.1,291.97,344.1,289.49z"/>
	</g>
</g>
<g id="Character">
	
		<line style="fill:none;stroke:#1D1D38;stroke-width:1.092;stroke-linecap:round;stroke-linejoin:round;stroke-miterlimit:10;" x1="465.6" y1="417.46" x2="34.4" y2="417.46"/>
	<g>
		<g>
			<path style="fill:#1D1D38;stroke:#1D1D38;stroke-width:1.092;stroke-miterlimit:10;" d="M294.68,417.46H161.35V321.9
				c0-8.2,6.65-14.85,14.85-14.85h103.65c8.2,0,14.85,6.65,14.85,14.85V417.46z"/>
			<path style="fill:#60505D;stroke:#1D1D38;stroke-width:1.092;stroke-miterlimit:10;" d="M286.45,417.46H153.12V321.9
				c0-8.2,6.65-14.85,14.85-14.85h103.65c8.2,0,14.85,6.65,14.85,14.85V417.46z"/>
		</g>
		<g>
			
				<path style="fill:#1D1D38;stroke:#1D1D38;stroke-width:1.092;stroke-linecap:round;stroke-linejoin:round;stroke-miterlimit:10;" d="
				M196.72,229.69c0,0-12.65-3.3-11.27-16.22c1.37-12.92,11.27-17.32,18.7-18.7c7.42-1.37,18.15-1.37,18.15-1.37s-2.2-4.4,6.32-5.22
				c8.52-0.82,32.17,7.42,41.52,24.2c9.35,16.77,7.42,44.54,3.3,53.62c-4.12,9.07-7.97,27.77-0.27,34.1
				c7.7,6.32,22.27,13.2,20.07,30.8c-2.2,17.6-21.45,18.15-20.62,27.5c0.82,9.35,19.25,16.22,14.57,32.45
				c-4.67,16.22-32.17,18.7-50.87,8.25c-18.7-10.45-14.3-44.27-20.07-62.97c-5.77-18.7-27.77-21.72-31.07-37.12
				c-3.3-15.4,7.97-23.1,13.47-36.02C204.15,250.04,196.72,229.69,196.72,229.69z"/>
			
				<path style="fill:none;stroke:#1D1D38;stroke-width:1.092;stroke-linecap:round;stroke-linejoin:round;stroke-miterlimit:10;" d="
				M222.29,193.4c0,0-35.34-2.38-48,15.08"/>
			
				<path style="fill:none;stroke:#1D1D38;stroke-width:1.092;stroke-linecap:round;stroke-linejoin:round;stroke-miterlimit:10;" d="
				M262.91,203.68c0,0,21.83,16.59,22.7,41.91c0.87,25.32-10.04,34.05-11.79,45.4c-1.75,11.35,7.42,17.9,7.42,17.9"/>
			
				<path style="fill:none;stroke:#1D1D38;stroke-width:1.092;stroke-linecap:round;stroke-linejoin:round;stroke-miterlimit:10;" d="
				M266.84,209.35c0,0,18.77,17.03,21.83,40.6c3.06,23.57,0,26.63,0,26.63"/>
		</g>
		
			<path style="fill:#FFFFFF;stroke:#1D1D38;stroke-width:1.092;stroke-linecap:round;stroke-linejoin:round;stroke-miterlimit:10;" d="
			M132.93,355.35c0,0-11.55,17.6-14.3,24.47c-2.75,6.87-2.47,12.37,4.67,14.02c7.15,1.65,18.15-6.87,21.72-10.72
			c3.57-3.85,10.17-15.95,10.17-15.95L132.93,355.35z"/>
		<g>
			
				<path style="fill:#76B2FF;stroke:#1D1D38;stroke-width:1.092;stroke-linecap:round;stroke-linejoin:round;stroke-miterlimit:10;" d="
				M208,295.68c0,0-28.6-0.27-36.02,2.2c-7.42,2.47-42.89,57.19-42.89,57.19l24.75,16.22l10.72-11.82c0,0,3.02,15.12,3.02,20.07
				c0,4.95-3.57,37.99-3.57,37.99h82.49c0,0,1.37-30.85,6.05-39.37c4.67-8.52,11-20.07,11-20.07l23.37,15.12l14.57-35.2
				c0,0-37.12-29.42-46.47-33.55C245.67,300.36,208,295.68,208,295.68z"/>
			<g>
				
					<path style="fill:none;stroke:#1D1D38;stroke-width:1.092;stroke-linecap:round;stroke-linejoin:round;stroke-miterlimit:10;" d="
					M164.55,359.47c0,0,0.98-8.85,2.24-17.1c1.27-8.25,6.35-18.4,6.35-18.4"/>
				
					<line style="fill:none;stroke:#1D1D38;stroke-width:1.092;stroke-linecap:round;stroke-linejoin:round;stroke-miterlimit:10;" x1="263.54" y1="358.1" x2="249.3" y2="349.99"/>
				
					<path style="fill:none;stroke:#1D1D38;stroke-width:1.092;stroke-linecap:round;stroke-linejoin:round;stroke-miterlimit:10;" d="
					M260.72,357.61c0,0-12.69-1.27-17.77-3.17"/>
			</g>
		</g>
		<g>
			
				<polygon style="fill:#1D1D38;stroke:#1D1D38;stroke-width:1.092;stroke-linecap:round;stroke-linejoin:round;stroke-miterlimit:10;" points="
				172.07,346.22 220.8,429.13 222.76,428.01 226.41,352.39 			"/>
			
				<polygon style="fill:#382434;stroke:#1D1D38;stroke-width:1.092;stroke-linecap:round;stroke-linejoin:round;stroke-miterlimit:10;" points="
				170.11,346.22 166.19,420.17 220.8,429.13 224.45,352.39 			"/>
			
				<polygon style="fill:#1D1D38;stroke:#1D1D38;stroke-width:1.092;stroke-linecap:round;stroke-linejoin:round;stroke-miterlimit:10;" points="
				190.27,370.31 201.48,371.71 199.52,418.21 179.35,414.85 			"/>
		</g>
		
			<path style="fill:#FFFFFF;stroke:#1D1D38;stroke-width:1.092;stroke-linecap:round;stroke-linejoin:round;stroke-miterlimit:10;" d="
			M208,295.68c0,0-7.34-0.07-15.54,0.18c-0.58,4.96-1.46,14.9-0.68,24.29c1.1,13.2,3.85,15.12,11.27,12.92
			c7.42-2.2,22.55-20.9,26.95-27.5c1.61-2.42,2.78-4.46,3.54-6.13C220.94,297.29,208,295.68,208,295.68z"/>
		
			<path style="fill:#FFFFFF;stroke:#1D1D38;stroke-width:1.092;stroke-linecap:round;stroke-linejoin:round;stroke-miterlimit:10;" d="
			M197.82,281.66c0,0-1.47,34.11-1.2,38.5c0.27,4.4,6.42,9.06,10.82,5.76c4.4-3.3,17.63-23.13,19-26.71
			c1.37-3.57,2.99-19.76,2.99-19.76s-11.82,7.15-19.8,6.32C201.67,284.96,197.82,281.66,197.82,281.66z"/>
		
			<path style="fill:#FFFFFF;stroke:#1D1D38;stroke-width:1.092;stroke-linecap:round;stroke-linejoin:round;stroke-miterlimit:10;" d="
			M123.58,373.5c-4.12,5.22-8.52,11.82-7.15,16.77c1.37,4.95,7.97,7.15,22.55,6.87c14.57-0.27,54.99,0.82,55.82,1.1
			c0.82,0.27,29.7,3.02,30.8,3.02c1.1,0,7.15-2.47,8.8-4.67c1.65-2.2,3.02-10.72,3.02-10.72s4.12-4.12,4.4-7.42
			c0.28-3.3-2.47-5.22-2.47-5.22s0-2.2-0.82-5.22c-0.82-3.02-6.87-1.65-10.17-2.2c-3.3-0.55-8.25-1.65-10.17,0.27
			c-1.92,1.92-17.87,15.67-17.87,15.67s-24.75-1.92-40.42-7.7c-15.67-5.77-24.47-6.87-30.8-0.82"/>
		
			<line style="fill:none;stroke:#1D1D38;stroke-width:1.092;stroke-linecap:round;stroke-linejoin:round;stroke-miterlimit:10;" x1="239.34" y1="373.22" x2="224.77" y2="369.92"/>
		<g>
			
				<path style="fill:#FFFFFF;stroke:#1D1D38;stroke-width:1.092;stroke-linecap:round;stroke-linejoin:round;stroke-miterlimit:10;" d="
				M186.62,234.8c0,0-7.99-4.66-9.33,0C175.96,239.46,186.62,234.8,186.62,234.8z"/>
			
				<path style="fill:#FFFFFF;stroke:#1D1D38;stroke-width:1.092;stroke-linecap:round;stroke-linejoin:round;stroke-miterlimit:10;" d="
				M185.62,238.8c0,0-6.99,5.33-3,5.66S185.62,238.8,185.62,238.8z"/>
		</g>
		<g>
			
				<path style="fill:#FFFFFF;stroke:#1D1D38;stroke-width:1.092;stroke-linecap:round;stroke-linejoin:round;stroke-miterlimit:10;" d="
				M229.62,212.45c0,0-33.76,11.09-34.24,13.98c-0.48,2.89-9.64,25.08-7.72,40.51c1.93,15.43,13.84,21.79,24.46,22.69
				c12.92,1.1,26.67-16.22,26.67-16.22s7.14-2.75,11-4.67c3.86-1.93,4.34-7.23,4.34-7.23s-9.56-7.1-17.76-21.09
				C228.17,226.43,229.62,212.45,229.62,212.45z"/>
			<g>
				
					<path style="fill:none;stroke:#1D1D38;stroke-width:1.092;stroke-linecap:round;stroke-linejoin:round;stroke-miterlimit:10;" d="
					M212.74,232.7c0,0,0.48,5.3-2.41,9.64c-2.89,4.34-7.23,5.3-7.23,5.3s0.48,5.3,4.34,5.3"/>
				
					<path style="fill:none;stroke:#1D1D38;stroke-width:2.1839;stroke-linecap:round;stroke-linejoin:round;stroke-miterlimit:10;" d="
					M198.1,239.04c0,0,3.85-3.85,9.35,0.82"/>
				
					<path style="fill:none;stroke:#1D1D38;stroke-width:2.1839;stroke-linecap:round;stroke-linejoin:round;stroke-miterlimit:10;" d="
					M220.37,243.44c0,0,7.7-0.82,9.62,4.4"/>
				
					<path style="fill:#1D1D38;stroke:#1D1D38;stroke-width:1.092;stroke-linecap:round;stroke-linejoin:round;stroke-miterlimit:10;" d="
					M209.65,259.66c0,0-6.05-2.2-11,1.1c-4.95,3.3-6.05,8.52-3.3,10.17c2.75,1.65,7.42-5.22,10.72-1.1c3.3,4.12,8.8,10.72,11,4.4
					C219.27,267.91,214.05,260.76,209.65,259.66z"/>
				<g>
					
						<path style="fill:#FFFFFF;stroke:#1D1D38;stroke-width:1.092;stroke-linecap:round;stroke-linejoin:round;stroke-miterlimit:10;" d="
						M206.8,270.74c3.33,4.09,8.22,9.37,10.27,3.5c0.22-0.62,0.34-1.25,0.42-1.88C214.06,272.04,210.34,271.43,206.8,270.74z"/>
					
						<path style="fill:#FFFFFF;stroke:#1D1D38;stroke-width:1.092;stroke-linecap:round;stroke-linejoin:round;stroke-miterlimit:10;" d="
						M214.6,263.21c-1.46-1.81-3.27-3.13-4.96-3.55c0,0-5.55-2-10.36,0.72C202.46,261.23,208.25,262.58,214.6,263.21z"/>
					
						<path style="fill:#FFFFFF;stroke:#1D1D38;stroke-width:1.092;stroke-linecap:round;stroke-linejoin:round;stroke-miterlimit:10;" d="
						M193.89,267.74c-0.09,1.39,0.4,2.56,1.46,3.19c1.4,0.84,3.29-0.52,5.25-1.53C197.87,268.78,195.52,268.17,193.89,267.74z"/>
				</g>
				
					<path style="fill:none;stroke:#1D1D38;stroke-width:1.092;stroke-linecap:round;stroke-linejoin:round;stroke-miterlimit:10;" d="
					M211.6,230.21c0,0-0.31-1.88-4.4-1.88c-4.08,0-10.68,5.03-10.68,5.03"/>
				
					<path style="fill:none;stroke:#1D1D38;stroke-width:1.092;stroke-linecap:round;stroke-linejoin:round;stroke-miterlimit:10;" d="
					M220.71,232.09c0,0,3.14-3.14,6.28,0.63c3.14,3.77,5.03,8.48,5.03,8.48"/>
			</g>
			
				<path style="fill:none;stroke:#1D1D38;stroke-width:1.092;stroke-linecap:round;stroke-linejoin:round;stroke-miterlimit:10;" d="
				M239.62,247.56c-21.11-13.3-10-35.12-10-35.12s-21.01,17.97-34.24,13.98"/>
		</g>
		<g>
			
				<path style="fill:#FFFFFF;stroke:#1D1D38;stroke-width:1.092;stroke-linecap:round;stroke-linejoin:round;stroke-miterlimit:10;" d="
				M234.67,261.86c0,0-3.02,3.57-3.02,5.5c0,1.92,6.05,9.9,8.52,6.6c2.47-3.3-0.82-5.77-1.92-9.07
				C237.14,261.59,234.67,261.86,234.67,261.86z"/>
			
				<path style="fill:#FFFFFF;stroke:#1D1D38;stroke-width:1.092;stroke-linecap:round;stroke-linejoin:round;stroke-miterlimit:10;" d="
				M274.54,260.76c0,0-18.97-9.07-25.3-12.37c-6.32-3.3-9.62-0.82-9.62-0.82s-11.27,9.62-10.72,11.27c0.55,1.65,6.87,6.87,6.87,6.87
				s3.85,5.5,8.52,6.87c4.67,1.37,11.55,3.3,12.92,1.1c1.37-2.2,0-5.5,0-5.5s3.85,3.3,6.32,3.85c2.47,0.55,7.7,0,7.7,0
				s10.45,67.37,10.45,77.54c0,10.17,4.4,20.9,12.1,23.37c7.7,2.47,16.5-3.3,18.15-11.55c1.65-8.25,0.83-17.32-4.12-27.5
				c-4.95-10.17-23.37-56.92-26.95-63.52C277.29,263.79,276.74,262.41,274.54,260.76z"/>
			
				<path style="fill:none;stroke:#1D1D38;stroke-width:1.092;stroke-linecap:round;stroke-linejoin:round;stroke-miterlimit:10;" d="
				M246.77,273.41c0,0,3.57-9.62,4.95-11.82"/>
			
				<path style="fill:none;stroke:#1D1D38;stroke-width:1.092;stroke-linecap:round;stroke-linejoin:round;stroke-miterlimit:10;" d="
				M240.72,270.39c0,0,4.67-12.37,6.32-14.57"/>
			
				<path style="fill:none;stroke:#1D1D38;stroke-width:1.092;stroke-linecap:round;stroke-linejoin:round;stroke-miterlimit:10;" d="
				M235.77,265.71c0,0,3.57-9.62,5.5-12.92"/>
		</g>
	</g>
</g>
<g id="Heart">
	<g>
		<path style="fill:#1D1D38;" d="M138.81,185.33l-9.56-3.19l7.44-21.24h-9.03l3.43-13.71c-4.3-6.28-11.52-10.41-19.71-10.41
			c-13.2,0-23.89,10.7-23.89,23.89c0,4.28,1.13,8.3,3.1,11.77c8.19,17.23,30.37,35.83,39,42.64L138.81,185.33z"/>
		<path style="fill:#1D1D38;" d="M154.75,136.78c-6.33,0-12.08,2.47-16.35,6.5l-3.83,12.31l10.62-0.53l-10.09,23.9l10.62,2.66
			l-9.7,33.94c8.14-6.4,31.14-25.47,39.52-43.11c1.97-3.48,3.1-7.49,3.1-11.77C178.64,147.48,167.94,136.78,154.75,136.78z"/>
	</g>
</g>
</svg>
