<?xml version="1.0" encoding="utf-8"?>
<!-- Generator: Adobe Illustrator 27.2.0, SVG Export Plug-In . SVG Version: 6.00 Build 0)  -->
<svg version="1.1" xmlns="http://www.w3.org/2000/svg" xmlns:xlink="http://www.w3.org/1999/xlink" x="0px" y="0px"
	 viewBox="0 0 500 500" style="enable-background:new 0 0 500 500;" xml:space="preserve">
<style type="text/css">
	.st0{fill:#8BD1FF;}
	.st1{opacity:0.8;fill:#FFFFFF;}
	.st2{fill:none;stroke:#1D1D38;stroke-width:1.1775;stroke-linecap:round;stroke-linejoin:round;stroke-miterlimit:10;}
	.st3{fill:#1D1D38;}
	.st4{fill:#FFFFFF;stroke:#1D1D38;stroke-width:1.1775;stroke-linecap:round;stroke-linejoin:round;stroke-miterlimit:10;}
	.st5{fill:#1D1D38;stroke:#1D1D38;stroke-width:1.1775;stroke-linecap:round;stroke-linejoin:round;stroke-miterlimit:10;}
	.st6{opacity:0.3;clip-path:url(#XMLID_00000110453654521801624470000012693163801184361387_);}
	.st7{clip-path:url(#XMLID_00000155865828089548261160000008015458827379655056_);fill:#8BD1FF;}
	.st8{opacity:0.7;clip-path:url(#XMLID_00000155865828089548261160000008015458827379655056_);fill:#FFFFFF;}
	.st9{fill:none;stroke:#1D1D38;stroke-width:2.355;stroke-linecap:round;stroke-linejoin:round;stroke-miterlimit:10;}
	.st10{fill:none;stroke:#6B6B6B;stroke-width:1.1775;stroke-linecap:round;stroke-linejoin:round;stroke-miterlimit:10;}
	.st11{clip-path:url(#XMLID_00000101802299746467783820000003397752765579883186_);fill:#8BD1FF;}
	.st12{opacity:0.7;clip-path:url(#XMLID_00000101802299746467783820000003397752765579883186_);fill:#FFFFFF;}
	.st13{clip-path:url(#XMLID_00000009554658371646626160000011325692882820183194_);fill:#8BD1FF;}
	.st14{opacity:0.7;clip-path:url(#XMLID_00000009554658371646626160000011325692882820183194_);fill:#FFFFFF;}
</style>
<g id="Background_Simple">
	<g>
		<path class="st0" d="M57.1,297.9c0,0,7.1,61.7,59.5,88.1c52.5,26.4,103.8,0.7,151-5.5c24.7-3.2,47.6,8.9,71.8,11.5
			c77.5,8.1,138.2-83.1,127.3-150.3c-9.4-58.1-46.6-99.2-114.3-128.4c-67.7-29.3-114.2-52.6-192.8-25
			C81.1,115.7,51.5,217.9,57.1,297.9z"/>
		<path class="st1" d="M57.1,297.9c0,0,7.1,61.7,59.5,88.1c52.5,26.4,103.8,0.7,151-5.5c24.7-3.2,47.6,8.9,71.8,11.5
			c77.5,8.1,138.2-83.1,127.3-150.3c-9.4-58.1-46.6-99.2-114.3-128.4c-67.7-29.3-114.2-52.6-192.8-25
			C81.1,115.7,51.5,217.9,57.1,297.9z"/>
	</g>
</g>
<g id="Clock">
	<g>
		
			<ellipse transform="matrix(0.9904 -0.1379 0.1379 0.9904 -21.7232 38.2042)" class="st2" cx="264.9" cy="175.9" rx="44.1" ry="44.1"/>
		
			<ellipse transform="matrix(0.9822 -0.1879 0.1879 0.9822 -28.3304 52.8998)" class="st2" cx="264.9" cy="175.9" rx="36.5" ry="36.5"/>
		<polyline class="st2" points="241.6,175.9 264.9,175.9 264.9,209.5 		"/>
	</g>
</g>
<g id="Plants">
	<g>
		<g>
			<g>
				<g>
					<path class="st0" d="M98.6,152.5c0,0,0-5.9-8.3-14.2c-8.3-8.3-13.6-13-13.6-13s-4.1,13.6,3.5,21.9c7.7,8.3,18.3,16,18.3,16
						V152.5z"/>
					<path class="st0" d="M86.6,189.4c0,0,0-5.9-8.3-14.2c-8.3-8.3-13.6-13-13.6-13s-4.1,13.6,3.5,21.9c7.7,8.3,18.3,16,18.3,16
						V189.4z"/>
					<path class="st0" d="M98.1,162.5c0,0,0.6-5.9,9.7-13.2c9.1-7.4,14.9-11.5,14.9-11.5s2.7,14-5.8,21.4
						c-8.5,7.4-19.9,13.9-19.9,13.9L98.1,162.5z"/>
					<path class="st0" d="M83.6,206.1c0,0,1.2-5.8,11.1-12.1c9.8-6.4,16-9.9,16-9.9s1.2,14.2-8.1,20.6c-9.2,6.5-21.3,11.8-21.3,11.8
						L83.6,206.1z"/>
					<path class="st0" d="M86.3,253.7c0,0,0-5.9,8.3-14.2c8.3-8.3,13.6-13,13.6-13s4.1,13.6-3.5,21.9c-7.7,8.3-18.3,16-18.3,16
						V253.7z"/>
					<path class="st0" d="M86.2,265.3c0,0,0.8-5.9-6.2-15.2c-7-9.4-11.6-14.8-11.6-14.8s-6,12.9,0.4,22.2
						c6.4,9.3,15.9,18.4,15.9,18.4L86.2,265.3z"/>
					<path class="st0" d="M78,299.7c0,0,0-5.9,8.3-14.2c8.3-8.3,13.6-13,13.6-13s4.1,13.6-3.5,21.9c-7.7,8.3-18.3,16-18.3,16V299.7z
						"/>
					<path class="st0" d="M83.6,330.8c0,0-1.5-5.7,4.4-15.8c5.9-10.1,9.9-16,9.9-16s7.4,12.1,2.1,22.1c-5.3,10-13.7,20.1-13.7,20.1
						L83.6,330.8z"/>
				</g>
				<path class="st2" d="M99.4,151c-0.5,6.3-1.2,12.9-2.3,18.4c-3.3,16.9-11.5,27.8-14.7,43.1c-3.3,15.3,6.1,34.9,3.6,54.5
					c-2.5,19.6-10.1,30.5-8,43.6c2.2,13.1,13.6,48.5,13.6,48.5"/>
				<line class="st2" x1="98" y1="166.5" x2="107" y2="159.6"/>
				<line class="st2" x1="98.5" y1="158.6" x2="94.7" y2="151.9"/>
				<path class="st2" d="M82.9,211.7c0,0,7.5-5.6,15.1-11.2"/>
				<path class="st2" d="M86.6,200c0,0-6.2-12.2-13.3-20.3"/>
				<path class="st2" d="M86.6,262.1c0,0,5.8-11.4,16-21.4"/>
				<path class="st2" d="M85.2,270.4c0,0-3.7-8.9-8.1-15.3c-4.4-6.4-5-7.3-5-7.3"/>
				<path class="st2" d="M78,310.5c0,0,3-7.6,6.7-13.6c3.7-6,8.7-11.4,8.7-11.4"/>
				<path class="st2" d="M86.3,341.1c0,0-0.9-7.1,2.2-13.1c3.1-6,6.6-13.9,8.1-17"/>
			</g>
			<g>
				<g>
					<path class="st0" d="M44.5,231.4c0,0-0.6-3.7,3.6-9.8c4.3-6.1,7.1-9.6,7.1-9.6s4.1,8.1,0.2,14.1s-9.8,12-9.8,12L44.5,231.4z"/>
					<path class="st0" d="M56,253.3c0,0-0.6-3.7,3.6-9.8c4.3-6.1,7.1-9.6,7.1-9.6s4.1,8.1,0.2,14.1c-3.9,6-9.8,12-9.8,12L56,253.3z"
						/>
					<path class="st0" d="M45.9,237.7c0,0-1-3.6-7.5-7.2c-6.5-3.6-10.6-5.6-10.6-5.6s-0.2,9,6,12.8c6.1,3.7,14,6.6,14,6.6
						L45.9,237.7z"/>
					<path class="st0" d="M59.7,263.5c0,0-1.4-3.5-8.3-6.4c-6.9-2.9-11.1-4.4-11.1-4.4s0.8,9,7.3,12.1c6.5,3.1,14.6,5.1,14.6,5.1
						L59.7,263.5z"/>
					<path class="st0" d="M63.2,293.6c0,0-0.6-3.7-6.7-8c-6.1-4.3-9.9-6.7-9.9-6.7s-1.1,9,4.6,13.3c5.7,4.4,13.2,8,13.2,8
						L63.2,293.6z"/>
					<path class="st0" d="M64.5,300.8c0,0-1.2-3.6,2.2-10.2c3.4-6.6,5.7-10.5,5.7-10.5s5.2,7.4,2.2,13.9c-3,6.5-8,13.3-8,13.3
						L64.5,300.8z"/>
					<path class="st0" d="M74.9,330.7c0,0,0.4-3.7,6.3-8.4c5.8-4.6,9.5-7.2,9.5-7.2s1.6,8.9-3.8,13.6c-5.5,4.7-12.7,8.8-12.7,8.8
						L74.9,330.7z"/>
					<path class="st0" d="M73.4,321.5c0,0-0.6-3.7-6.7-8c-6.1-4.3-9.9-6.7-9.9-6.7s-1.1,9,4.6,13.3c5.7,4.4,13.2,8,13.2,8
						L73.4,321.5z"/>
					<path class="st0" d="M73.3,341.7c0,0,0.3-3.7-4.5-9.4c-4.8-5.7-7.9-9-7.9-9s-3.4,8.4,1.1,14.1c4.4,5.7,10.8,11.1,10.8,11.1
						L73.3,341.7z"/>
				</g>
				<path class="st2" d="M43.8,230.6c1,3.9,2.1,7.9,3.4,11.3c3.9,10.2,10.2,16.2,13.9,25.4c3.7,9.2,0,22.6,3.7,34.6
					c3.7,12,9.7,18,9.7,26.5c0.1,8.4-3.3,31.9-3.3,31.9"/>
				<line class="st2" x1="46.4" y1="240.2" x2="40" y2="236.8"/>
				<line class="st2" x1="45.2" y1="235.3" x2="46.9" y2="230.7"/>
				<path class="st2" d="M60.8,266.9c0,0-5.3-2.7-10.7-5.4"/>
				<path class="st2" d="M57.2,260c0,0,2.6-8.3,6.1-14.2"/>
				<path class="st2" d="M63.9,298.9c0,0-4.9-6.5-12.3-11.7"/>
				<path class="st2" d="M65.7,303.9c0,0,1.4-6,3.4-10.5c2-4.5,2.3-5.1,2.3-5.1"/>
				<path class="st2" d="M74.2,334.7c0,0,4.2-5.1,6.8-7.1c2.6-1.9,4.4-3.8,4.4-3.8"/>
				<path class="st2" d="M74.5,328.3c0,0-2.7-4.4-5.7-7.8c-3-3.4-6.7-6.2-6.7-6.2"/>
				<path class="st2" d="M72.7,348.4c0,0-0.2-4.5-2.8-8c-2.6-3.4-5.7-8-6.9-9.8"/>
			</g>
		</g>
		<g>
			<path class="st3" d="M100.3,400.7H62.6c-1.6,0-2.8-1.3-2.8-2.8l-5.4-41.7h54.1l-5.4,41.7C103.1,399.4,101.8,400.7,100.3,400.7z"
				/>
			<path class="st3" d="M108,363.2H54.3c-2.3,0-4.2-1.9-4.2-4.2l0,0c0-2.3,1.9-4.2,4.2-4.2H108c2.3,0,4.2,1.9,4.2,4.2l0,0
				C112.2,361.3,110.4,363.2,108,363.2z"/>
		</g>
	</g>
</g>
<g id="Device">
	<g>
		<g>
			<path class="st4" d="M382,366l16.6,26.7c2.1,3.4-0.3,7.8-4.3,7.8h-32.5h-43.5h42.1c4,0,6.5-4.4,4.4-7.8l-16.1-26.2L382,366z"/>
			<polygon class="st5" points="382,366 348.6,366.6 354.8,376.6 388.6,376.6 			"/>
			<path class="st4" d="M293.2,371.9h136c1.6,0,2.9-1.3,2.9-2.9V255.1c0-1.6-1.3-2.9-2.9-2.9h-136c-1.6,0-2.9,1.3-2.9,2.9V369
				C290.3,370.6,291.6,371.9,293.2,371.9z"/>
			<path class="st4" d="M287.8,371.9h136c1.6,0,2.9-1.3,2.9-2.9V255.1c0-1.6-1.3-2.9-2.9-2.9h-136c-1.6,0-2.9,1.3-2.9,2.9V369
				C284.9,370.6,286.2,371.9,287.8,371.9z"/>
			<path class="st5" d="M289.7,252.2h132.3c2.6,0,4.8,2.1,4.8,4.8v93.5H284.9V257C284.9,254.3,287,252.2,289.7,252.2z"/>
			
				<rect x="290.9" y="257" transform="matrix(-1 -1.224647e-16 1.224647e-16 -1 711.5953 600.9055)" class="st4" width="129.9" height="87"/>
		</g>
		<g>
			<rect x="248.4" y="394.5" class="st4" width="4.1" height="1.4"/>
			<rect x="253.9" y="394.5" class="st4" width="4.1" height="1.4"/>
			<rect x="259.4" y="394.5" class="st4" width="4.1" height="1.4"/>
			<rect x="264.9" y="394.5" class="st4" width="4.1" height="1.4"/>
			<rect x="270.4" y="394.5" class="st4" width="4.1" height="1.4"/>
			<rect x="275.9" y="394.5" class="st4" width="4.1" height="1.4"/>
			<rect x="281.4" y="394.5" class="st4" width="4.1" height="1.4"/>
			<rect x="286.9" y="394.5" class="st4" width="4.1" height="1.4"/>
			<rect x="292.4" y="394.5" class="st4" width="4.1" height="1.4"/>
			<rect x="297.9" y="394.5" class="st4" width="4.1" height="1.4"/>
			<rect x="303.4" y="394.5" class="st4" width="4.1" height="1.4"/>
			<rect x="308.9" y="394.5" class="st4" width="4.1" height="1.4"/>
			<rect x="314.4" y="394.5" class="st4" width="4.1" height="1.4"/>
			<rect x="319.9" y="394.5" class="st4" width="4.1" height="1.4"/>
			<rect x="325.4" y="394.5" class="st4" width="4.1" height="1.4"/>
			<rect x="330.9" y="394.5" class="st4" width="4.1" height="1.4"/>
			<rect x="336.4" y="394.5" class="st4" width="4.1" height="1.4"/>
			<rect x="341.9" y="394.5" class="st4" width="4.1" height="1.4"/>
			<rect x="347.4" y="394.5" class="st4" width="4.1" height="1.4"/>
			<rect x="352.9" y="394.5" class="st4" width="4.1" height="1.4"/>
			<rect x="358.4" y="394.5" class="st4" width="4.1" height="1.4"/>
			<rect x="246.3" y="396.1" class="st4" width="119.2" height="4.4"/>
			<rect x="336.5" y="396.1" class="st5" width="29.1" height="4.4"/>
		</g>
	</g>
</g>
<g id="Text">
	<g>
		<path class="st3" d="M316.5,313.1v5.7c0,4.4,1.9,5.9,5,5.9c3,0,5-1.6,5-5.9v-13.4c0-4.4-1.9-6-5-6c-3,0-5,1.7-5,6v1.8h-9l1.7-35.3
			h25.2v8.7h-16.6l-0.8,14.5c1.7-2.9,4.5-4.4,8.4-4.4c7,0,10.6,5,10.6,13.9v13.6c0,9.7-4.9,15.3-14.3,15.3
			c-9.4,0-14.3-5.6-14.3-15.3v-5H316.5z"/>
		<path class="st3" d="M343,286.4c0-9.7,5.1-15.3,14.5-15.3c9.4,0,14.5,5.6,14.5,15.3v31.7c0,9.7-5.1,15.3-14.5,15.3
			c-9.4,0-14.5-5.6-14.5-15.3V286.4z M352.6,318.7c0,4.4,1.9,6,5,6c3,0,5-1.7,5-6v-32.9c0-4.4-1.9-6-5-6c-3,0-5,1.7-5,6V318.7z"/>
		<path class="st3" d="M378.8,286.4c0-9.7,5.1-15.3,14.5-15.3c9.4,0,14.5,5.6,14.5,15.3v31.7c0,9.7-5.1,15.3-14.5,15.3
			c-9.4,0-14.5-5.6-14.5-15.3V286.4z M388.3,318.7c0,4.4,1.9,6,5,6c3,0,5-1.7,5-6v-32.9c0-4.4-1.9-6-5-6c-3,0-5,1.7-5,6V318.7z"/>
	</g>
	<g>
		<path class="st3" d="M283.2,420.6c-0.4-0.3-1-0.7-1.6-1c0,0,0,0-0.1,0c0,0-0.1,0-0.1,0c-0.1,0-0.1-0.1-0.2-0.1
			c-0.1,0-0.1-0.1-0.2-0.1c-0.6-0.3-1.2-0.6-1.5-0.8c-0.4-0.2-0.7-0.5-0.9-0.9c-0.3-0.4-0.4-0.8-0.4-1.3v-0.8c0-0.8,0.2-1.3,0.6-1.7
			c0.4-0.4,1-0.6,1.8-0.6c0.8,0,1.3,0.2,1.7,0.6c0.4,0.4,0.6,1,0.6,1.8v0.9h1.6v-0.9c0-0.9-0.1-1.6-0.4-2.2c-0.3-0.6-0.7-1-1.3-1.3
			c-0.6-0.3-1.3-0.4-2.2-0.4c-0.9,0-1.6,0.1-2.2,0.4c-0.6,0.3-1,0.7-1.3,1.3c-0.3,0.6-0.4,1.3-0.4,2.1v0.8c0,0.8,0.2,1.4,0.5,1.9
			c0.3,0.5,0.7,0.9,1.2,1.2c0.5,0.3,1.1,0.6,1.8,1l0.2,0.1c0,0,0,0,0.1,0c0,0,0,0,0.1,0c0.6,0.3,1.1,0.6,1.4,0.8
			c0.4,0.3,0.7,0.6,0.9,1c0.2,0.4,0.4,0.8,0.4,1.4v1c0,0.8-0.2,1.4-0.6,1.8c-0.4,0.4-1,0.6-1.8,0.6c-0.8,0-1.4-0.2-1.8-0.6
			c-0.4-0.4-0.6-1-0.6-1.8V424h-1.6v0.8c0,0.9,0.1,1.6,0.4,2.2s0.7,1,1.3,1.3c0.6,0.3,1.4,0.4,2.3,0.4c0.9,0,1.6-0.1,2.2-0.4
			c0.6-0.3,1-0.7,1.3-1.3c0.3-0.6,0.4-1.3,0.4-2.2v-1.1c0-0.8-0.1-1.4-0.4-1.9C284,421.3,283.6,420.9,283.2,420.6z"/>
		<polygon class="st3" points="288,411.9 286.9,411.9 286.9,428.6 288,428.6 288.5,428.6 294,428.6 294,427 288.5,427 288.5,421.1 
			293.4,421.1 293.4,419.5 288.5,419.5 288.5,413.5 294,413.5 294,411.9 288.5,411.9 		"/>
		<path class="st3" d="M302.2,421.1c0.6-0.3,1.1-0.8,1.4-1.3c0.3-0.6,0.5-1.3,0.5-2.1v-1.9c0-0.8-0.2-1.5-0.5-2s-0.8-1-1.4-1.3
			c-0.6-0.3-1.4-0.4-2.2-0.4h-2.3H297h-1v16.7h1.6v-7h2.3c0.2,0,0.4,0,0.6,0l2.1,7.1h1.9L302.2,421.1
			C302.2,421.1,302.2,421.1,302.2,421.1z M297.7,420v-6.5h2.4c0.5,0,0.9,0.1,1.3,0.3c0.4,0.2,0.6,0.5,0.8,0.8
			c0.2,0.4,0.3,0.8,0.3,1.3v1.7c0,0.5-0.1,0.9-0.3,1.3c-0.2,0.4-0.5,0.6-0.8,0.8c-0.4,0.2-0.8,0.3-1.3,0.3H297.7z"/>
		<polygon class="st3" points="310.2,426.7 307.5,411.9 305.7,411.9 309.1,428.6 311.3,428.6 314.7,411.9 313,411.9 		"/>
		<polygon class="st3" points="317.5,411.9 316.3,411.9 316.3,428.6 317.5,428.6 318,428.6 323.5,428.6 323.5,427 318,427 
			318,421.1 322.9,421.1 322.9,419.5 318,419.5 318,413.5 323.5,413.5 323.5,411.9 318,411.9 		"/>
		<path class="st3" d="M331.7,421.1c0.6-0.3,1.1-0.8,1.4-1.3c0.3-0.6,0.5-1.3,0.5-2.1v-1.9c0-0.8-0.2-1.5-0.5-2s-0.8-1-1.4-1.3
			c-0.6-0.3-1.4-0.4-2.2-0.4h-2.3h-0.6h-1v16.7h1.6v-7h2.3c0.2,0,0.4,0,0.6,0l2.1,7.1h1.9L331.7,421.1
			C331.6,421.1,331.7,421.1,331.7,421.1z M327.1,420v-6.5h2.4c0.5,0,0.9,0.1,1.3,0.3c0.4,0.2,0.6,0.5,0.8,0.8
			c0.2,0.4,0.3,0.8,0.3,1.3v1.7c0,0.5-0.1,0.9-0.3,1.3c-0.2,0.4-0.5,0.6-0.8,0.8c-0.4,0.2-0.8,0.3-1.3,0.3H327.1z"/>
		<path class="st3" d="M342.8,412.3c-0.4-0.2-1-0.3-1.6-0.3H338h-0.8h-0.9v16.6h0.9h0.8h3.2c0.6,0,1.2-0.1,1.6-0.3
			c0.4-0.2,0.8-0.6,1-1c0.2-0.4,0.3-1,0.3-1.6v-10.7c0-0.6-0.1-1.2-0.3-1.6C343.6,412.8,343.3,412.5,342.8,412.3z M342.5,425.7
			c0,0.4-0.1,0.8-0.3,1s-0.5,0.4-0.9,0.4H338v-13.6h3.3c0.4,0,0.7,0.1,0.9,0.4s0.3,0.6,0.3,1V425.7z"/>
		<path class="st3" d="M349.1,411.9l-3.8,16.6h1.8l0.8-4h4.4l0.8,4h1.8l-3.8-16.6H349.1z M348.2,423l1.9-9.2l1.9,9.2H348.2z"/>
		<path class="st3" d="M359.8,421.1h2.4v3.4c0,0.6-0.1,1-0.3,1.4c-0.2,0.4-0.5,0.7-0.8,0.9s-0.8,0.3-1.3,0.3c-0.5,0-0.9-0.1-1.3-0.3
			c-0.4-0.2-0.6-0.5-0.8-0.8s-0.3-0.8-0.3-1.3V416c0-0.6,0.1-1,0.3-1.4c0.2-0.4,0.5-0.7,0.8-0.9c0.4-0.2,0.8-0.3,1.3-0.3
			c0.5,0,0.8,0.1,1.2,0.3s0.6,0.5,0.7,0.9c0.2,0.4,0.2,0.8,0.2,1.4v0.8h1.8v-0.8c0-0.9-0.2-1.6-0.5-2.2c-0.3-0.6-0.8-1.1-1.3-1.4
			s-1.3-0.5-2.1-0.5c-0.8,0-1.6,0.2-2.2,0.5c-0.6,0.3-1.1,0.8-1.4,1.5c-0.3,0.6-0.5,1.4-0.5,2.3v8.7c0,0.8,0.2,1.6,0.5,2.2
			c0.3,0.6,0.8,1.1,1.4,1.4c0.6,0.3,1.3,0.5,2.2,0.5c0.8,0,1.6-0.2,2.2-0.5c0.6-0.3,1.1-0.8,1.4-1.5c0.3-0.6,0.5-1.4,0.5-2.3v-4.9
			h-4.1V421.1z"/>
		<rect x="366.4" y="411.9" class="st3" width="1.6" height="16.6"/>
		<polygon class="st3" points="383.7,411.9 381.9,411.9 379.3,418.2 376.7,411.9 374.9,411.9 378.5,420.1 374.8,428.6 376.6,428.6 
			379.4,422 382.1,428.6 383.9,428.6 380.2,420 		"/>
		<path class="st3" d="M388.4,411.9l-3.8,16.6h1.8l0.8-4h4.4l0.8,4h1.8l-3.8-16.6H388.4z M387.5,423l1.9-9.2l1.9,9.2H387.5z"/>
		<polygon class="st3" points="394.4,413.5 397.6,413.5 397.6,428.6 399.3,428.6 399.3,413.5 402.5,413.5 402.5,411.9 394.4,411.9 
					"/>
		<path class="st3" d="M410.3,412.2c-0.6-0.3-1.4-0.5-2.2-0.5c-0.9,0-1.6,0.2-2.2,0.5s-1.1,0.8-1.4,1.4s-0.5,1.4-0.5,2.3v8.6
			c0,0.9,0.2,1.6,0.5,2.3s0.8,1.1,1.4,1.4s1.4,0.5,2.2,0.5c0.9,0,1.6-0.2,2.2-0.5s1.1-0.8,1.4-1.4c0.3-0.6,0.5-1.4,0.5-2.3v-8.6
			c0-0.9-0.2-1.6-0.5-2.3C411.4,413,410.9,412.6,410.3,412.2z M410.5,424.6c0,0.5-0.1,1-0.3,1.4s-0.5,0.7-0.8,0.9
			c-0.4,0.2-0.8,0.3-1.3,0.3c-0.5,0-1-0.1-1.3-0.3c-0.4-0.2-0.7-0.5-0.8-0.9s-0.3-0.8-0.3-1.4v-8.8c0-0.5,0.1-1,0.3-1.4
			s0.5-0.7,0.8-0.9c0.4-0.2,0.8-0.3,1.3-0.3c0.5,0,1,0.1,1.3,0.3c0.4,0.2,0.7,0.5,0.8,0.9s0.3,0.8,0.3,1.4V424.6z"/>
		<polygon class="st3" points="416.2,411.9 414.5,411.9 414.5,428.6 415.7,428.6 416.2,428.6 421.4,428.6 421.4,427 416.2,427 		"/>
		<rect x="423.7" y="411.9" class="st3" width="1.6" height="16.6"/>
		<polygon class="st3" points="435.2,428.6 437.1,428.6 433.1,418.2 436.6,411.9 434.7,411.9 429.8,421.1 429.8,411.9 428.1,411.9 
			428.1,428.6 429.8,428.6 429.8,424 432.1,420 		"/>
	</g>
	<g>
		<polygon class="st3" points="327.7,227.6 326.6,227.6 326.6,244.2 327.7,244.2 328.2,244.2 333.7,244.2 333.7,242.7 328.2,242.7 
			328.2,236.7 333.1,236.7 333.1,235.2 328.2,235.2 328.2,229.1 333.7,229.1 333.7,227.6 328.2,227.6 		"/>
		<path class="st3" d="M341.9,236.7c0.6-0.3,1.1-0.8,1.4-1.3c0.3-0.6,0.5-1.3,0.5-2.1v-1.9c0-0.8-0.2-1.5-0.5-2s-0.8-1-1.4-1.3
			c-0.6-0.3-1.4-0.4-2.2-0.4h-2.3h-0.6h-1v16.7h1.6v-7h2.3c0.2,0,0.4,0,0.6,0l2.1,7.1h1.9L341.9,236.7
			C341.9,236.7,341.9,236.7,341.9,236.7z M337.3,235.6v-6.5h2.4c0.5,0,0.9,0.1,1.3,0.3c0.4,0.2,0.6,0.5,0.8,0.8
			c0.2,0.4,0.3,0.8,0.3,1.3v1.7c0,0.5-0.1,0.9-0.3,1.3c-0.2,0.4-0.5,0.6-0.8,0.8c-0.4,0.2-0.8,0.3-1.3,0.3H337.3z"/>
		<path class="st3" d="M352.8,236.7c0.6-0.3,1.1-0.8,1.4-1.3c0.3-0.6,0.5-1.3,0.5-2.1v-1.9c0-0.8-0.2-1.5-0.5-2s-0.8-1-1.4-1.3
			c-0.6-0.3-1.4-0.4-2.2-0.4h-2.3h-0.6h-1v16.7h1.6v-7h2.3c0.2,0,0.4,0,0.6,0l2.1,7.1h1.9L352.8,236.7
			C352.7,236.7,352.8,236.7,352.8,236.7z M348.2,235.6v-6.5h2.4c0.5,0,0.9,0.1,1.3,0.3c0.4,0.2,0.6,0.5,0.8,0.8
			c0.2,0.4,0.3,0.8,0.3,1.3v1.7c0,0.5-0.1,0.9-0.3,1.3c-0.2,0.4-0.5,0.6-0.8,0.8c-0.4,0.2-0.8,0.3-1.3,0.3H348.2z"/>
		<path class="st3" d="M363.3,227.9c-0.6-0.3-1.4-0.5-2.2-0.5c-0.9,0-1.6,0.2-2.2,0.5s-1.1,0.8-1.4,1.4s-0.5,1.4-0.5,2.3v8.6
			c0,0.9,0.2,1.6,0.5,2.3s0.8,1.1,1.4,1.4s1.4,0.5,2.2,0.5c0.9,0,1.6-0.2,2.2-0.5s1.1-0.8,1.4-1.4c0.3-0.6,0.5-1.4,0.5-2.3v-8.6
			c0-0.9-0.2-1.6-0.5-2.3C364.4,228.7,364,228.2,363.3,227.9z M363.6,240.3c0,0.5-0.1,1-0.3,1.4s-0.5,0.7-0.8,0.9
			c-0.4,0.2-0.8,0.3-1.3,0.3c-0.5,0-1-0.1-1.3-0.3c-0.4-0.2-0.7-0.5-0.8-0.9s-0.3-0.8-0.3-1.4v-8.8c0-0.5,0.1-1,0.3-1.4
			s0.5-0.7,0.8-0.9c0.4-0.2,0.8-0.3,1.3-0.3c0.5,0,1,0.1,1.3,0.3c0.4,0.2,0.7,0.5,0.8,0.9s0.3,0.8,0.3,1.4V240.3z"/>
		<path class="st3" d="M376.2,244.2l-2.5-7.5c0,0,0.1,0,0.1,0c0.6-0.3,1.1-0.8,1.4-1.3c0.3-0.6,0.5-1.3,0.5-2.1v-1.9
			c0-0.8-0.2-1.5-0.5-2s-0.8-1-1.4-1.3c-0.6-0.3-1.4-0.4-2.2-0.4h-2.3h-0.6h-1v16.7h1.6v-7h2.3c0.2,0,0.4,0,0.6,0l2.1,7.1H376.2z
			 M369.2,235.6v-6.5h2.4c0.5,0,0.9,0.1,1.3,0.3c0.4,0.2,0.6,0.5,0.8,0.8c0.2,0.4,0.3,0.8,0.3,1.3v1.7c0,0.5-0.1,0.9-0.3,1.3
			c-0.2,0.4-0.5,0.6-0.8,0.8c-0.4,0.2-0.8,0.3-1.3,0.3H369.2z"/>
	</g>
</g>
<g id="Character_1_">
	<g>
		<path class="st4" d="M192.6,247.6c0,0,5.1-8.8,7-5.1c1.9,3.7,1.4,11.6-1.4,15.3c-2.8,3.7-3.7,5.6-5.1,2.8
			C191.6,257.9,192.6,247.6,192.6,247.6z"/>
		<path class="st4" d="M131.7,254.6c0,0-6-7.4-7.4-2.3c-1.4,5.1,5.6,11.6,7.4,12.5c1.9,0.9,4.6,0.5,4.6,0.5L131.7,254.6z"/>
		<g>
			<g>
				<defs>
					<path id="XMLID_4_" d="M153.9,286.5c0,0-65.3,19.8-65.3,23.5s-1.9,76.9-0.4,81c1.5,4.1,13.8,8.2,20.5,8.2v1.5h143.3l-7.1-39.6
						c0,0,40.3-1.5,41-4.5c0.7-3-35.4-62.7-38.7-64.5c-3.4-1.9-54.5-7.5-60.5-7.5C180.8,284.6,168.1,282,153.9,286.5z"/>
				</defs>
				<use xlink:href="#XMLID_4_"  style="overflow:visible;fill:#8BD1FF;"/>
				<clipPath id="XMLID_00000138535560809342793160000012731099178526662058_">
					<use xlink:href="#XMLID_4_"  style="overflow:visible;"/>
				</clipPath>
				<path style="opacity:0.3;clip-path:url(#XMLID_00000138535560809342793160000012731099178526662058_);" d="M212.3,400.7
					c-90.5-33.2-86.4-50.2-86.4-50.2l-30,45.8c4.3,1.7,9.4,2.8,12.9,2.8v1.5H212.3z"/>
				<path style="opacity:0.3;clip-path:url(#XMLID_00000138535560809342793160000012731099178526662058_);" d="M188.9,304.4
					c0,0,30.7-1.6,50.9-16.2l-56.6-7.3L188.9,304.4z"/>
				
					<use xlink:href="#XMLID_4_"  style="overflow:visible;fill:none;stroke:#1D1D38;stroke-width:1.1775;stroke-linecap:round;stroke-linejoin:round;stroke-miterlimit:10;"/>
			</g>
			<line class="st2" x1="243.7" y1="342.8" x2="233" y2="310.7"/>
			<path class="st2" d="M101.1,311.4c0,0,17.8,10,23.5,33.5"/>
		</g>
		<path class="st5" d="M101,355.9c0,0-11.9,7.8-14.6,9.7c-2.6,1.9-3.4,21.6-0.7,27.2c2.6,5.6,13.8,8.2,21.3,4.5
			c7.5-3.7,10.8-21.3,8.2-30.2C112.5,358.2,101,355.9,101,355.9z"/>
		<path class="st5" d="M144.6,290.2c0,0,1.1,17.9,4.5,29.8c3.4,11.9,9.7,27.6,9.7,27.6l21.3-16.8l28.7,7.1c0,0-5.6-29.5-9.7-39.2
			c-4.1-9.7-12.3-17.5-12.3-17.5S155.4,277.2,144.6,290.2z"/>
		<g>
			<defs>
				<path id="XMLID_1_" d="M148.7,287.3c0,0,5.2,13.1,10.8,24.3c5.6,11.2,19,26.9,22.4,23.5c3.4-3.4,6.7-29.5,6.7-35.4
					s0-17.9,0-17.9s-10.4,8.6-18.7,8.6S148.7,287.3,148.7,287.3z"/>
			</defs>
			<use xlink:href="#XMLID_1_"  style="overflow:visible;fill:#FFFFFF;"/>
			<clipPath id="XMLID_00000031928200139657875010000017880323112878886043_">
				<use xlink:href="#XMLID_1_"  style="overflow:visible;"/>
			</clipPath>
			<path style="clip-path:url(#XMLID_00000031928200139657875010000017880323112878886043_);fill:#8BD1FF;" d="M188.6,281.7
				c0,0-10.4,8.6-18.7,8.6c-8.2,0-21.3-3-21.3-3s2.7,6.6,6.2,14.5c5.5,3.5,13,6.3,21.8,4.9c4.7-0.7,8.6-3.3,11.9-6.8
				c0-0.1,0-0.2,0-0.3C188.6,293.6,188.6,281.7,188.6,281.7z"/>
			<path style="opacity:0.7;clip-path:url(#XMLID_00000031928200139657875010000017880323112878886043_);fill:#FFFFFF;" d="
				M188.6,281.7c0,0-10.4,8.6-18.7,8.6c-8.2,0-21.3-3-21.3-3s2.7,6.6,6.2,14.5c5.5,3.5,13,6.3,21.8,4.9c4.7-0.7,8.6-3.3,11.9-6.8
				c0-0.1,0-0.2,0-0.3C188.6,293.6,188.6,281.7,188.6,281.7z"/>
			
				<use xlink:href="#XMLID_1_"  style="overflow:visible;fill:none;stroke:#1D1D38;stroke-width:1.1775;stroke-linecap:round;stroke-linejoin:round;stroke-miterlimit:10;"/>
		</g>
		<g>
			<path class="st4" d="M130.3,250.9c0,0,7.9,26,13,33c5.1,7,19,13.9,29.3,13.5c10.2-0.5,18.6-10.7,20.4-20.9
				c1.9-10.2,0.5-33.4,0.5-33.4s-1.9-10.2-9.8-23.7c-7.9-13.5-47.8-2.3-52,7.9C127.5,237.4,130.3,250.9,130.3,250.9z"/>
			<g>
				<path class="st2" d="M161.9,271.3c0,0,4.6,6.5,10.2-0.5"/>
				<path class="st2" d="M147.5,261.1c0,0,4.2-3.7,9.8,0"/>
				<path class="st2" d="M173.5,258.3c0,0,1.9-3.7,8.8-3.7"/>
				<path class="st9" d="M145.2,253.7c0,0,2.8-4.6,12.1-5.6"/>
				<path class="st9" d="M171.1,252.3c0,0,4.5-9.4,12.6-6.5"/>
				<path class="st3" d="M172.6,282c0,1.3-1.1,2.3-2.6,2.3s-2.6-1-2.6-2.3c0-1.3,1.1-2.3,2.6-2.3S172.6,280.7,172.6,282z"/>
				<path class="st3" d="M157.5,262.5c0,0.8-0.6,1.4-1.4,1.4c-0.8,0-1.4-0.6-1.4-1.4c0-0.8,0.6-1.4,1.4-1.4
					C156.9,261.1,157.5,261.7,157.5,262.5z"/>
				<path class="st3" d="M182,257.3c0,0.8-0.6,1.4-1.4,1.4c-0.8,0-1.4-0.6-1.4-1.4c0-0.8,0.6-1.4,1.4-1.4
					C181.4,255.9,182,256.5,182,257.3z"/>
			</g>
		</g>
		<path class="st5" d="M152.1,194.7c0,0-7,0-16.3,0c-9.3,0-21.4,24.6-20.9,36.2c0.5,11.6,10.7,19,13.5,20.4c2.8,1.4,7.9,3.7,7.9,2.3
			c0-1.4,5.6-12.5,5.6-12.5s-1.4,6.5,2.3,6.5c3.7,0,15.3-12.1,15.3-12.1s0.5,9.8,4.2,9.8c3.7,0,11.6-14.4,11.6-14.4l8.4,9.3l2.8-5.6
			c0,0,3.3,13,6,13c2.8,0,5.1-6.5,6.5-13c1.4-6.5,4.2-17.2-0.5-26.9c-4.6-9.8-18.1-18.6-29.3-18.6
			C158.2,189.1,152.1,194.7,152.1,194.7z"/>
		<path class="st10" d="M146.4,198.4c0,0-11.4,1.3-16.7,4.8c-5.3,3.5-7,7.9-7,7.9l11.4-5.3c0,0-7.5,5.7-8.4,8.4
			c-0.9,2.6-1.8,8.4-1.8,8.4l7-2.2c0,0-2.9,2.4-2.6,4.8c0.3,2.4,1.3,7.9,1.3,7.9l8.4-7.9l2.2,5.7l7-5.7l0.4,4.4l4.8-6.6l4,4l2.6-4.8
			c0,0,2.2,2.2,3.1-3.1c0.9-5.3,1.3-7.5,1.3-7.5l4.8,5.7l1.8,7.5l1.3-7.9l4,3.5l1.3-6.6l4.8,2.6l1.8-6.2l10.6,3.5
			c0,0-3.1-11-5.7-14.1c-2.6-3.1-15.4-4.4-15.4-4.4l-1.3-2.2c0,0-15,3.1-16.7,4c-1.8,0.9-4,3.1-4,3.1"/>
		<g>
			<path class="st4" d="M118.9,277.9c0,0-2.6-2.6-2.6-6.7c0-4.1,4.5-13.1,5.6-13.1s3.4,2.2,3.4,2.2s-1.9,9-2.6,12.3
				C121.9,276.1,118.9,277.9,118.9,277.9z"/>
			<path class="st4" d="M121.5,281.7c0,0-3.7-4.5-3.7-6.3s6-14.9,7.5-14.9c1.5,0,6,1.9,7.1,2.6c1.1,0.7,0.7,4.5,0.7,7.1
				c0,2.6-6.7,14.2-6.7,14.2L121.5,281.7z"/>
			<g>
				<defs>
					<path id="XMLID_3_" d="M129.3,262.3c0,0-9.3,16.8-7.8,19.4c1.5,2.6,16.4,18.7,16.4,18.7s-42.5,63.4-46.6,69.8
						c-4.1,6.3-4.9,15.7-3,20.9s13.1,10.1,20.9,9.7c7.8-0.4,13.8-10.1,16-19c2.2-9,22.4-74.6,24.3-79.8s4.5-9.3,1.9-11.9
						c-2.6-2.6-12.7-12.3-12.7-12.3s3-2.6,2.6-5.6C140.9,269,134.5,263,129.3,262.3z"/>
				</defs>
				<use xlink:href="#XMLID_3_"  style="overflow:visible;fill:#FFFFFF;"/>
				<clipPath id="XMLID_00000169531584858163190690000002231926368029886375_">
					<use xlink:href="#XMLID_3_"  style="overflow:visible;"/>
				</clipPath>
				<path style="clip-path:url(#XMLID_00000169531584858163190690000002231926368029886375_);fill:#8BD1FF;" d="M125.2,381.7
					c2.2-9,22.4-74.6,24.3-79.8c1.9-5.2,4.5-9.3,1.9-11.9c-2.4-2.4-10.7-10.4-12.4-12l-0.1,0c1.5,1.9,9.2,12.2,8.4,18.2
					c-0.9,6.6-34.8,86.2-39.2,91.5c-3.4,4-12.4,6.5-16.4,7.5c4.4,3.4,11.8,5.9,17.5,5.6C117,400.3,123,390.6,125.2,381.7z"/>
				<path style="opacity:0.7;clip-path:url(#XMLID_00000169531584858163190690000002231926368029886375_);fill:#FFFFFF;" d="
					M125.2,381.7c2.2-9,22.4-74.6,24.3-79.8c1.9-5.2,4.5-9.3,1.9-11.9c-2.4-2.4-10.7-10.4-12.4-12l-0.1,0c1.5,1.9,9.2,12.2,8.4,18.2
					c-0.9,6.6-34.8,86.2-39.2,91.5c-3.4,4-12.4,6.5-16.4,7.5c4.4,3.4,11.8,5.9,17.5,5.6C117,400.3,123,390.6,125.2,381.7z"/>
				
					<use xlink:href="#XMLID_3_"  style="overflow:visible;fill:none;stroke:#1D1D38;stroke-width:1.1775;stroke-linecap:round;stroke-linejoin:round;stroke-miterlimit:10;"/>
			</g>
			<path class="st2" d="M134.9,270.5l-1.9,4.5l5.6,2.6c0,0,0.1,0.1,0.2,0.3"/>
		</g>
		<g>
			<path class="st5" d="M246.1,339.5c0,0,3.4-5.6,7.5-7.1c4.1-1.5,20.1-3,26.5-0.7c6.3,2.2,10.1,10.4,11.2,14.9
				c1.1,4.5,0.7,10.8-3,14.2c-3.7,3.4-8.6,2.6-13.8,1.1c-5.2-1.5-15.7-7.5-21.3-10.8C247.6,347.7,246.5,341.7,246.1,339.5z"/>
			<g>
				<g>
					<g>
						<defs>
							<path id="XMLID_2_" d="M193.9,333.2c0,0-29.5,24.3-33.6,26.5c-4.1,2.2-2.2,6.3-0.7,7.8c1.5,1.5,11.2,10.4,15.7,13.4
								c4.5,3,10.8-2.2,12.3-3c1.5-0.7-0.4-4.1-0.4-4.1s11.6-6.3,13.4-12.3s2.2-14.2,2.2-14.2s47,19,58.2,23.1
								c11.2,4.1,18.3,4.5,23.5-0.7c5.2-5.2,5.6-16,3-21.6c-2.6-5.6-19-10.8-26.5-10.8c-7.5,0-60.4-6.3-63.8-5.2
								C193.9,333.2,193.9,333.2,193.9,333.2z"/>
						</defs>
						<use xlink:href="#XMLID_2_"  style="overflow:visible;fill:#FFFFFF;"/>
						<clipPath id="XMLID_00000042006916118489106400000010854622571313052851_">
							<use xlink:href="#XMLID_2_"  style="overflow:visible;"/>
						</clipPath>
						<path style="clip-path:url(#XMLID_00000042006916118489106400000010854622571313052851_);fill:#8BD1FF;" d="M284.5,369.7
							c1.8-1.8,3.1-4.4,3.8-7.1c-19.6-1.2-77.2-23-83-23.4c-6.6-0.4-7.5,9.7-14.1,18s-10.6,10.6-16.3,11.4c-3.9,0.6-4.5,5.5-4.5,8.6
							c1.8,1.5,3.5,2.8,4.7,3.7c4.5,3,10.8-2.2,12.3-3c1.5-0.7-0.4-4.1-0.4-4.1s11.6-6.3,13.4-12.3s2.2-14.2,2.2-14.2
							s47,19,58.2,23.1C272.2,374.6,279.3,374.9,284.5,369.7z"/>
						<path style="opacity:0.7;clip-path:url(#XMLID_00000042006916118489106400000010854622571313052851_);fill:#FFFFFF;" d="
							M284.5,369.7c1.8-1.8,3.1-4.4,3.8-7.1c-19.6-1.2-77.2-23-83-23.4c-6.6-0.4-7.5,9.7-14.1,18s-10.6,10.6-16.3,11.4
							c-3.9,0.6-4.5,5.5-4.5,8.6c1.8,1.5,3.5,2.8,4.7,3.7c4.5,3,10.8-2.2,12.3-3c1.5-0.7-0.4-4.1-0.4-4.1s11.6-6.3,13.4-12.3
							s2.2-14.2,2.2-14.2s47,19,58.2,23.1C272.2,374.6,279.3,374.9,284.5,369.7z"/>
						
							<use xlink:href="#XMLID_2_"  style="overflow:visible;fill:none;stroke:#1D1D38;stroke-width:1.1775;stroke-linecap:round;stroke-linejoin:round;stroke-miterlimit:10;"/>
					</g>
					<line class="st4" x1="187.2" y1="373.8" x2="182.3" y2="376.1"/>
				</g>
				<polygon class="st5" points="201,341 202.8,347.3 208,349.9 205.1,337.6 				"/>
				<path class="st4" d="M209.2,335.6c0,3.8-3.9,6.9-8.8,6.9c-4.8,0-8.8-3.1-8.8-6.9c0-3.8,3.9-6.9,8.8-6.9
					C205.2,328.7,209.2,331.8,209.2,335.6z"/>
			</g>
		</g>
	</g>
	<line class="st2" x1="40.6" y1="400.7" x2="443.3" y2="400.7"/>
</g>
</svg>
